<?xml version="1.0" standalone="no"?><!DOCTYPE svg PUBLIC "-//W3C//DTD SVG 1.1//EN" "http://www.w3.org/Graphics/SVG/1.1/DTD/svg11.dtd"><svg t="1611294504789" class="icon" viewBox="0 0 1024 1024" version="1.1" xmlns="http://www.w3.org/2000/svg" p-id="2770" xmlns:xlink="http://www.w3.org/1999/xlink" width="200" height="200"><defs><style type="text/css"></style></defs><path d="M868.15128125 565.9817525l-249.57087281 242.71297594a111.45849281 111.45849281 0 0 1-154.40872031 0l-310.33749188-301.78279594a47.93457563 47.93457563 0 0 0 7.06999688 59.88286969l342.57667406 332.78472937a51.43422375 51.43422375 0 0 0 71.47766343 0l249.64157249-242.71297593 0.56559939-0.70699874 67.80126562-65.92771689a103.71684656 103.71684656 0 0 1-27.11343656 107.07509531l-249.60622125 242.71297594a111.38779313 111.38779313 0 0 1-154.37337094 0L119.33261469 606.95238125a103.99964719 103.99964719 0 0 1-6.99929719-142.38972656 103.75219687 103.75219687 0 0 1 9.29704595-139.06682906l43.86932717-42.66742782 0.31815 0.31815a29.693985 29.693985 0 0 1 19.19503969-6.96394687 28.633485 28.633485 0 0 1 28.91628563 28.13858531 27.21948563 27.21948563 0 0 1-7.14069657 18.62944125l0.31815 0.35349938-43.9046775 42.63207843a48.42947531 48.42947531 0 0 0 0 69.53341407l342.576675 332.78472937a51.46957406 51.46957406 0 0 0 71.51301282 0l249.60622218-242.712975a48.32342531 48.32342531 0 0 0 0-69.533415l-342.54132468-333.10287937a51.46957406 51.46957406 0 0 0-71.51301282 0L369.29233625 165.89065719l-0.31815-0.31814906a29.83538438 29.83538438 0 0 1-19.19503969 6.96394593 28.59813562 28.59813562 0 0 1-28.91628562-28.13858531c0-7.28209594 2.58054844-13.57439344 7.14069656-18.66479062l-0.31815-0.28279969L371.55473563 82.78284969a111.38779313 111.38779313 0 0 1 154.37337093 0l342.57667407 333.10287937a103.89359719 103.89359719 0 0 1-0.35349938 150.09602344zM366.9945875 247.72586563c41.60692875 0 75.40151156 32.87548313 75.40151156 73.35121218 0 40.44037969-33.79458281 73.31586281-75.40151156 73.31586282s-75.36616125-32.87548313-75.36616125-73.31586282c0-9.190995 1.59074906-18.02849062 4.84294781-26.26503656L184.34123094 185.7926975a29.375835 29.375835 0 0 1 0-42.34927875 31.39078406 31.39078406 0 0 1 43.55117812 0l112.1654925 109.01934468c8.44864594-3.14614875 17.53359094-4.73689781 26.93668594-4.7368978z" p-id="2771" fill="#e6e6e6"></path></svg>