<?xml version="1.0" standalone="no"?><!DOCTYPE svg PUBLIC "-//W3C//DTD SVG 1.1//EN" "http://www.w3.org/Graphics/SVG/1.1/DTD/svg11.dtd"><svg t="1611294388461" class="icon" viewBox="0 0 1024 1024" version="1.1" xmlns="http://www.w3.org/2000/svg" p-id="2563" xmlns:xlink="http://www.w3.org/1999/xlink" width="200" height="200"><defs><style type="text/css"></style></defs><path d="M767.845 292c50.126 0 94.956 48.341 104.672 106.717l16.912 101.614c2.449 14.709-7.491 28.618-22.2 31.066-14.71 2.448-28.619-7.491-31.067-22.2L819.25 407.582c-5.697-34.228-30.303-61.042-50.785-61.575l-0.62-0.008H246.853c-20.397 0-45.15 26.472-51.226 60.548l-0.179 1.035-73.847 443.7c-4.964 29.821 13.44 52.264 42.604 52.71l0.887 0.007h342.257c14.912 0 27 12.088 27 27 0 14.763-11.848 26.758-26.553 27H165.092c-62.62 0-106.334-51.706-97.056-113.701l0.297-1.882 73.848-443.7c9.619-57.792 53.653-105.75 103.17-106.703l1.502-0.014h520.992z" p-id="2564" fill="#e6e6e6"></path><path d="M512 67c106.231 0 192.264 82.24 193.974 184l0.026 3.09v232.454c0 14.06-12.088 25.456-27 25.456-14.763 0-26.758-11.17-26.996-25.035l-0.004-0.42V254.09c0-75.357-62.841-136.179-140-136.179-76.387 0-138.742 59.612-139.981 133.923L372 254.09v232.454c0 14.06-12.088 25.456-27 25.456-14.763 0-26.758-11.17-27-25.035V254.09C318 150.91 404.696 67 512 67z" p-id="2565" fill="#e6e6e6"></path><path d="M761.998 677C715.13 677 677 715.134 677 762.002 677 808.87 715.13 847 761.998 847 808.87 847 847 808.87 847 762.002 846.996 715.13 808.866 677 761.998 677z m-0.284 136.397C733.2 813.397 710 790.206 710 761.7S733.199 710 761.714 710c28.516 0 51.714 23.192 51.714 51.699 0 28.507-23.198 51.698-51.714 51.698z m186.066-25.484l-25.74-14.858c0.577-5.666 0.867-11.359 0.868-17.055 0-5.686-0.292-11.4-0.868-17.055l25.74-14.858c9.762-5.635 13.121-18.16 7.484-27.919l-47.55-82.336c-5.636-9.76-18.165-13.113-27.927-7.482l-25.74 14.857a165.852 165.852 0 0 0-29.55-17.087v-29.683c0-11.27-9.17-20.437-20.448-20.437h-95.1c-11.273 0-20.443 9.17-20.443 20.437v29.687a166.13 166.13 0 0 0-29.55 17.087l-25.744-14.857c-9.762-5.635-22.29-2.281-27.928 7.482l-47.55 82.332c-5.636 9.76-2.277 22.284 7.485 27.92l25.74 14.857a168.537 168.537 0 0 0-0.868 17.055c0 5.682 0.292 11.4 0.869 17.055l-25.741 14.858c-9.762 5.635-13.121 18.16-7.484 27.923l47.55 82.332c5.636 9.763 18.165 13.117 27.927 7.482l25.745-14.857a166.212 166.212 0 0 0 29.55 17.083v29.687c0 11.27 9.17 20.437 20.443 20.437h95.1c11.273 0 20.447-9.17 20.447-20.437v-29.687a166.352 166.352 0 0 0 29.55-17.083l25.74 14.857c9.766 5.635 22.295 2.281 27.928-7.482l47.55-82.332c5.636-9.763 2.281-22.284-7.485-27.923z m-78.468 73.917l-20.335-11.756c-6.215-3.59-13.891-3.085-19.558 1.291a119.278 119.278 0 0 1-27.36 15.847c-6.607 2.73-10.879 9.131-10.879 16.306V907h-69.367v-23.482c0-7.175-4.268-13.576-10.875-16.306a119.402 119.402 0 0 1-27.36-15.847c-5.667-4.376-13.346-4.884-19.558-1.291l-20.335 11.756L609 801.669l20.328-11.753a17.593 17.593 0 0 0 8.666-17.575 121.135 121.135 0 0 1-1.038-15.843c0-5.293 0.35-10.624 1.038-15.843a17.584 17.584 0 0 0-8.666-17.574L609 711.328l34.685-60.161 20.335 11.756c6.212 3.593 13.887 3.085 19.558-1.292a119.402 119.402 0 0 1 27.36-15.846c6.607-2.73 10.879-9.132 10.879-16.307V606h69.37v23.478c0 7.175 4.268 13.576 10.878 16.307a119.35 119.35 0 0 1 27.36 15.846c5.668 4.373 13.343 4.881 19.555 1.292l20.335-11.756L904 711.328l-20.328 11.753a17.595 17.595 0 0 0-8.666 17.578 121.096 121.096 0 0 1 1.038 15.843c0 5.293-0.347 10.62-1.038 15.843a17.582 17.582 0 0 0 8.666 17.574L904 801.672l-34.688 60.158z" p-id="2566" fill="#e6e6e6"></path></svg>